<svg id="Capa_1" enable-background="new 0 0 512 512" height="512" viewBox="0 0 512 512" width="512" xmlns="http://www.w3.org/2000/svg"><g><path d="m481.095 416.463h-450.19c-17.068 0-30.905-13.837-30.905-30.906v-303.903c0-17.069 13.837-30.905 30.905-30.905h450.189c17.069 0 30.905 13.837 30.905 30.905v303.903c.001 17.069-13.836 30.906-30.904 30.906z" fill="#b5adb6"/><path d="m479.416 344.35h-446.832v-258.034c0-2.175 1.763-3.938 3.938-3.938h438.955c2.175 0 3.938 1.763 3.938 3.938v258.034z" fill="#d8ecfe"/><path d="m30.905 416.463h450.189c17.069 0 30.905-13.837 30.905-30.905v-41.208h-511.999v41.207c0 17.069 13.837 30.906 30.905 30.906z" fill="#918291"/><path d="m332.439 511.24h-152.878c-5.675 0-9.254-6.105-6.482-11.057l19.304-34.486c8.397-15.001 10.35-32.767 5.412-49.234h116.41c-4.938 16.467-2.986 34.233 5.412 49.234l19.304 34.486c2.772 4.951-.807 11.057-6.482 11.057z" fill="#b5adb6"/><path d="m319.617 465.697c-8.397-15.001-10.35-32.767-5.412-49.234h-116.41c.186.621.344 1.248.51 1.873l133.689 69.472z" fill="#a79ba7"/><g><path d="m94.618 258.113 144.802-244.727c9.961-16.834 34.134-16.834 44.095 0l144.801 244.727c10.214 17.262-2.117 39.17-22.047 39.17h-289.603c-19.931 0-32.261-21.908-22.048-39.17z" fill="#fd4755"/></g><path d="m428.316 258.113-144.801-244.727c-8.835-14.931-28.842-16.607-40.205-5.053l71.04 124.792c33.972 59.677-6.166 134.338-74.682 138.916l-146.486 9.789c3.881 8.828 12.529 15.453 23.484 15.453h289.603c19.93 0 32.261-21.908 22.047-39.17z" fill="#fb2b3a"/><g><path d="m323.401 214.251h-123.867c-4.267 0-7.726-3.459-7.726-7.726s3.459-7.726 7.726-7.726h123.867c4.267 0 7.726 3.459 7.726 7.726s-3.459 7.726-7.726 7.726z" fill="#cbc4cc"/></g><path d="m324.476 198.881c-1.159 5.264-2.773 10.405-4.804 15.369h3.728c4.267 0 7.726-3.459 7.726-7.726.001-3.901-2.893-7.118-6.65-7.643z" fill="#b5adb6"/><g><path d="m270.064 168.972h-17.193c-22.111 0-40.099-19.431-40.099-43.314 0-4.268 3.459-7.726 7.726-7.726s7.726 3.459 7.726 7.726c0 15.363 11.056 27.861 24.646 27.861h17.193c13.59 0 24.646-12.498 24.646-27.861 0-4.268 3.459-7.726 7.726-7.726s7.726 3.459 7.726 7.726c.002 23.883-17.986 43.314-40.097 43.314z" fill="#cbc4cc"/></g><g><path d="m323.401 274.168c-4.267 0-7.726-3.459-7.726-7.726 0-15.362-11.056-27.86-24.647-27.86h-59.121c-13.591 0-24.647 12.498-24.647 27.86 0 4.268-3.459 7.726-7.726 7.726s-7.726-3.459-7.726-7.726c0-23.882 17.988-43.313 40.1-43.313h59.121c22.111 0 40.1 19.431 40.1 43.313-.002 4.267-3.461 7.726-7.728 7.726z" fill="#cbc4cc"/></g><path d="m311.808 229.411c-2.783 4.353-5.917 8.486-9.389 12.337 7.87 4.658 13.255 13.976 13.255 24.694 0 4.268 3.459 7.726 7.726 7.726s7.726-3.459 7.726-7.726c.001-15.672-7.744-29.426-19.318-37.031z" fill="#b5adb6"/><path d="m264.649 259.528h-6.363c-21.013 0-38.047-17.034-38.047-38.047v-29.915c0-21.013 17.034-38.047 38.047-38.047h6.363c21.013 0 38.047 17.034 38.047 38.047v29.915c0 21.013-17.034 38.047-38.047 38.047z" fill="#fff"/><path d="m261.467 180.711c-4.267 0-7.726 3.459-7.726 7.726v70.811c1.491.178 3.006.28 4.545.28h6.363c1.539 0 3.054-.102 4.545-.28v-70.811c0-4.267-3.46-7.726-7.727-7.726z" fill="#cbc4cc"/><g><path d="m291.028 196.164h-59.121c-22.111 0-40.1-19.431-40.1-43.314 0-4.268 3.459-7.726 7.726-7.726s7.726 3.459 7.726 7.726c0 15.363 11.056 27.861 24.647 27.861h59.121c13.591 0 24.647-12.498 24.647-27.861 0-4.268 3.459-7.726 7.726-7.726s7.726 3.459 7.726 7.726c.001 23.883-17.987 43.314-40.098 43.314z" fill="#cbc4cc"/></g><path d="m323.401 145.124c-1.081 0-2.109.224-3.043.624 3.513 9.019 5.501 18.231 6.093 27.372 2.98-6.052 4.676-12.95 4.676-20.27 0-4.267-3.459-7.726-7.726-7.726z" fill="#b5adb6"/></g></svg>