<svg height="512pt" viewBox="0 0 512 512" width="512pt" xmlns="http://www.w3.org/2000/svg" xmlns:xlink="http://www.w3.org/1999/xlink"><linearGradient id="a" gradientUnits="userSpaceOnUse" x1="0" x2="512" y1="256" y2="256"><stop offset="0" stop-color="#00f2fe"/><stop offset=".0208" stop-color="#03effe"/><stop offset=".2931" stop-color="#24d2fe"/><stop offset=".5538" stop-color="#3cbdfe"/><stop offset=".7956" stop-color="#4ab0fe"/><stop offset="1" stop-color="#4facfe"/></linearGradient><path d="m313.152344 197.433594c11.570312 11.417968 17.90625 26.582031 17.90625 42.753906 0 16.175781-6.335938 31.339844-17.847656 42.703125-.070313.066406-.136719.132813-.203126.199219l-20.160156 19.339844c-3.878906 3.722656-8.867187 5.570312-13.84375 5.570312-5.257812 0-10.507812-2.058594-14.4375-6.152344-7.644531-7.96875-7.382812-20.628906.585938-28.277344l14.140625-13.570312h-69.292969c-11.046875 0-20-8.953125-20-20s8.953125-20 20-20h69.027344l-15.019532-14.710938c-7.894531-7.726562-8.023437-20.390624-.296874-28.28125 7.730468-7.894531 20.390624-8.023437 28.28125-.296874zm-163.152344-58.433594h-90c-33.085938 0-60 26.914062-60 60v109c0 26.074219 16.71875 48.316406 40 56.574219v127.425781c0 11.046875 8.953125 20 20 20s20-8.953125 20-20v-144c0-11.046875-8.953125-20-20-20-11.027344 0-20-8.972656-20-20v-109c0-11.027344 8.972656-20 20-20h90c11.046875 0 20-8.953125 20-20s-8.953125-20-20-20zm-10 189c-11.046875 0-20 8.953125-20 20v144c0 11.046875 8.953125 20 20 20s20-8.953125 20-20v-144c0-11.046875-8.953125-20-20-20zm-100-268c0-33.085938 26.914062-60 60-60s60 26.914062 60 60-26.914062 60-60 60-60-26.914062-60-60zm40 0c0 11.027344 8.972656 20 20 20s20-8.972656 20-20-8.972656-20-20-20-20 8.972656-20 20zm292 266c-11.046875 0-20 8.953125-20 20v146c0 11.046875 8.953125 20 20 20s20-8.953125 20-20v-146c0-11.046875-8.953125-20-20-20zm-70 40h-57.507812l14.246093-13.464844c8.027344-7.585937 8.382813-20.246094.796875-28.273437-7.589844-8.027344-20.246094-8.382813-28.273437-.796875l-21.160157 20c-.105468.097656-.207031.199218-.3125.300781-11.511718 11.363281-17.851562 26.527344-17.851562 42.699219 0 16.175781 6.339844 31.339844 17.792969 42.644531l20.160156 20.066406c3.902344 3.882813 9.007813 5.824219 14.109375 5.824219 5.132812 0 10.269531-1.964844 14.175781-5.890625 7.792969-7.828125 7.761719-20.492187-.066406-28.285156l-14.894531-14.824219h58.785156c11.046875 0 20-8.953125 20-20s-8.953125-20-20-20zm150-227h-90c-11.046875 0-20 8.953125-20 20s8.953125 20 20 20h90c11.027344 0 20 8.972656 20 20v109c0 11.027344-8.972656 20-20 20-11.046875 0-20 8.953125-20 20v144c0 11.046875 8.953125 20 20 20s20-8.953125 20-20v-127.425781c23.28125-8.253907 40-30.5 40-56.574219v-109c0-33.085938-26.914062-60-60-60zm-100-79c0-33.085938 26.914062-60 60-60s60 26.914062 60 60-26.914062 60-60 60-60-26.914062-60-60zm40 0c0 11.027344 8.972656 20 20 20s20-8.972656 20-20-8.972656-20-20-20-20 8.972656-20 20zm0 0" fill="url(#a)"/></svg>